<svg xmlns="http://www.w3.org/2000/svg" viewBox="0 0 7841 4232" shape-rendering="geometricPrecision" text-rendering="geometricPrecision" image-rendering="optimizeQuality" fill-rule="evenodd" clip-rule="evenodd"><defs><style>.fil0{fill:#f21818}.fil1,.fil2{fill:#1a1a1a;fill-rule:nonzero}.fil2{fill:#999}</style></defs><g id="Слой_x0020_1"><path class="fil0" d="M1331 1509c73-74 185-190 321-321-213-218-437-497-668-847-397 500-222 281-693 868l796 38C-98 1304 3 1469 519 645c589-940 415-743 884-106 136 184 280 346 427 483 2721-2470 2482 2476-145 198-165 129-293 240-354 289zm552-438c2357 1826 2102-1844 0 0z"/><path class="fil1" d="M50 1717l374 12c35 0 76-2 122-5 72-5 130-7 171-7 40 0 60 11 60 33 0 21-16 32-47 34-55 3-97 23-124 59-28 37-45 112-53 226-7 114-11 240-11 377 0 219 10 367 31 442s66 135 135 180c68 45 160 67 273 67 116 0 203-24 261-73 59-49 100-127 122-232s33-301 33-587c0-168-13-285-40-349-26-64-71-100-134-106-46-4-68-18-68-40s18-33 55-33c18 0 48 2 90 6 43 4 88 6 136 6 43 0 91-3 145-8 40-3 68-4 83-4 39 0 58 11 58 33 0 17-14 28-42 31-39 4-73 22-105 54-31 32-51 85-60 159s-14 264-14 570c0 202-20 347-60 437-40 91-111 161-211 211s-225 75-374 75c-116 0-216-10-301-31s-152-52-202-95c-51-42-86-91-108-147-23-56-34-138-34-246l5-619c0-87-5-158-14-214-10-55-25-92-46-111-21-18-53-29-95-34-27-3-61-3-61-36 0-23 17-35 50-35zm2397 1564c-26 0-130-2-314-6l-192 1-113-1c-26 0-43-2-50-5s-10-10-10-21c0-17 13-25 38-25 48 0 83-8 105-25 22-16 36-46 42-90 6-43 11-130 16-260s8-250 8-360c0-154-8-248-23-283-14-35-51-54-110-57-21-2-31-11-31-26 0-16 9-23 28-23 11 0 48 3 112 9 71 7 120 10 148 10l330-9c110 0 216 21 319 64 102 42 183 111 243 206 60 96 90 204 90 325 0 90-17 173-53 251-35 77-86 143-152 196-67 52-133 87-199 104-66 16-143 25-232 25zm-60-63c123 0 219-42 290-128s107-208 107-367c0-161-39-294-115-399-77-104-185-157-326-157-48 0-77 3-87 9-10 5-16 11-18 17-2 5-6 71-10 195l-11 297c-2 72-3 163-3 270 0 81 4 137 11 168 7 30 22 54 46 70 24 17 63 25 116 25zm1786-1097c19 91 37 181 55 272 0 17-9 25-26 25-9 0-19-8-31-24-59-87-114-144-164-172-49-28-121-42-214-42-53 0-103 4-152 13-10 103-15 215-15 337 0 22 0 57 1 106l67 1c41 0 76-6 106-17s56-36 77-72c21-37 32-61 35-71 6-19 15-28 27-28 17 0 25 7 25 21 0 4-1 8-2 14-7 36-10 143-10 323 0 25 2 47 6 68 2 6 2 10 2 14 0 17-9 25-27 25-13 0-23-16-30-47-11-54-38-95-79-123s-107-43-196-44c-3 97-4 162-4 192 0 132 2 211 6 236s19 45 44 60c26 16 69 23 130 23 222 0 367-70 437-211 10-19 20-29 31-29 17 0 25 7 25 21 0 9-2 21-5 35l-57 250-315-1c-88 0-171-2-248-6-77-3-137-5-181-5-48 0-122 2-220 7-12 1-21 2-27 2-27 0-41-9-41-27 0-17 11-25 34-25 56 0 94-15 113-46 20-30 30-92 30-186l5-447c0-153-2-247-6-282-3-35-14-58-30-71-16-12-47-22-91-28-19-2-28-10-28-24 0-17 11-26 32-26l210 7 701 2zm1198 1151c-145-7-371-11-677-11-106 0-193 3-260 9-16 1-28 2-36 2-22 0-33-9-33-26 0-9 3-14 9-17 6-4 20-7 43-11 35-5 63-15 82-31s32-40 40-72c8-31 12-112 14-242 1-130 1-285 1-463 0-72-5-124-15-156-11-32-26-56-45-71-20-15-47-23-82-25-25-1-38-10-38-27s15-26 43-26l288 9c45 0 107-3 187-7 29-1 48-2 59-2 24 0 36 8 36 25 0 9-4 16-11 19-8 4-28 8-59 13-39 5-66 15-82 29-16 15-26 40-32 76-5 36-8 117-8 243v529c0 82 8 130 22 146 14 15 40 23 79 23 96 0 167-8 213-23 47-14 91-41 133-80 43-39 88-104 136-195 10-19 20-28 30-28 15 0 23 8 23 25 0 38-20 159-60 365zm71-1169c301 8 524 13 668 13 110 0 230-3 362-10 47-2 85-3 116-3 11 0 31 0 58 1 4 24 9 73 16 147l13 137c0 23-9 34-28 34-14 0-28-14-42-42-22-46-50-87-85-120-34-34-74-56-120-67s-121-17-226-17c-9 89-14 201-14 334 0 137 3 269 8 396s11 203 19 230c7 26 20 45 38 57s60 21 127 25c23 2 34 10 34 24 0 17-10 25-30 25l-24-1-180-5c-140 0-226 1-256 2l-109 4c-9 0-27-1-54-2-14-3-20-10-20-22 0-16 11-25 33-25 51 0 90-10 116-32 26-21 42-55 48-102s9-149 9-305c0-247-7-448-22-603-96 0-165 4-207 12-43 8-84 29-123 64-40 35-72 80-97 135-10 22-21 33-34 33-20 0-30-8-30-26 0-5 4-43 11-114s16-130 25-177zm1738-21h63c76 165 185 426 324 782 65 164 109 263 133 298s63 56 115 64c18 2 26 9 26 22 0 19-11 27-33 27-13 0-44-2-95-6-60-5-111-8-152-8-40 0-92 3-157 7-48 4-80 6-94 6-27 0-40-9-40-25 0-13 9-20 27-22 72-6 107-34 107-85 0-23-10-66-31-128-22-62-44-119-68-170-38 0-67-1-88-1-116 0-207 1-271 1-51 137-76 228-76 272 0 32 13 56 38 74 25 17 52 27 81 30 22 3 33 12 33 27s-12 23-36 23c-9 0-34-1-73-3-51-4-89-6-112-6-45 0-89 3-130 9-11 1-20 2-27 2-21 0-32-9-32-27 0-12 7-21 21-25 35-10 62-21 82-36 20-14 41-42 64-83s50-106 82-196c72-204 178-478 319-823zm-59 303l-148 388 304-4c-16-46-41-107-75-186-36-86-63-152-81-198z"/><path class="fil2" d="M2836 3528v212l-2 234c0 25 12 40 35 44 8 2 12 5 12 8s-1 5-4 6c-3 0-19 1-49 1-15 0-30-1-45-1-1-15-1-25-1-32 0-8 0-20 1-35-13 24-28 43-45 55s-36 18-57 18c-29 0-59-14-89-41-30-28-45-65-45-112 0-45 14-84 42-118 28-33 63-50 104-50 21 0 39 4 54 13s27 22 36 39c2-29 2-56 2-81 0-78-2-121-6-130-4-8-13-13-27-15-10-1-14-4-14-7 0-5 6-7 17-7l81-1zm-51 329c0-42-7-74-22-94-14-21-35-32-64-32s-52 12-67 37c-15 24-22 61-22 109 0 49 9 85 26 106 18 21 38 32 58 32 22 0 42-11 61-34 20-22 30-64 30-124zm208-322c9 0 18 4 25 11 7 6 11 14 11 22 0 10-3 18-9 25s-14 10-25 10c-9 0-18-3-25-9s-11-14-11-24 3-19 9-25c7-7 15-10 25-10zm41 180l-1 83 1 78v102c0 18 2 29 8 34s14 8 26 8c13 1 20 3 20 8 0 4-3 6-8 6-2 0-4-1-6-1-23-3-44-4-64-4-31 0-53 1-65 3-2 1-5 1-7 1-6 0-9-2-9-7 0-4 7-7 20-9 14-1 23-4 27-9 4-4 6-16 6-36l2-153c0-41-3-65-9-73-6-7-18-11-36-12-6 0-9-2-9-6 0-2 1-4 3-5 2-2 17-3 44-5s46-3 57-3zm360 53c11 17 17 37 17 57 0 32-11 59-32 81s-51 35-91 38c-25 2-42 4-51 6-10 3-18 7-26 14-7 7-11 14-11 21 0 10 6 18 17 23 12 5 37 8 74 9 55 2 91 4 110 7 18 3 34 12 47 26 14 14 20 33 20 56 0 37-16 67-49 91-33 23-82 35-146 35-48 0-84-6-107-19-24-12-36-30-36-55 0-38 36-69 108-93-30-5-52-12-64-20-13-9-19-21-19-36 0-16 7-29 20-41s32-22 58-31c-23-6-42-19-56-36-15-17-22-37-22-61 0-33 13-62 39-88 25-25 58-37 97-37 38 0 69 13 94 40 25-29 49-43 71-43 15 0 27 4 36 13 8 9 12 18 12 29 0 7-2 12-7 17-5 4-11 6-18 6-12 0-22-7-30-22-4-9-9-13-15-13-10 0-24 8-40 26zm-180 61c0 36 8 62 24 77s32 23 50 23c16 0 31-8 44-24 13-15 20-39 20-72s-7-59-19-77c-14-18-29-27-48-27-21 0-38 9-51 26-13 18-20 42-20 74zm98 237c-25 0-49 4-71 13-22 8-38 18-48 30-11 11-16 25-16 42 0 21 11 38 31 49 21 12 47 18 79 18 47 0 83-10 106-29 23-20 34-41 34-64 0-20-9-34-28-44s-48-15-87-15zm285-531c10 0 18 4 26 11 7 6 11 14 11 22 0 10-3 18-9 25s-15 10-25 10-18-3-25-9c-8-6-12-14-12-24s4-19 10-25c6-7 14-10 24-10zm41 180l-1 83 1 78v102c0 18 3 29 9 34 5 5 14 8 25 8 14 1 20 3 20 8 0 4-2 6-7 6-2 0-4-1-7-1-23-3-44-4-64-4-31 0-53 1-64 3-3 1-5 1-8 1-6 0-9-2-9-7 0-4 7-7 21-9 14-1 23-4 26-9 4-4 6-16 6-36l2-153c0-41-3-65-9-73-6-7-18-11-35-12-6 0-9-2-9-6 0-2 1-4 3-5 2-2 16-3 43-5 28-2 47-3 57-3zm207 34c-3 55-5 108-5 160 0 41 5 67 15 79s23 18 41 18c14 0 28-4 44-14 6-3 9-5 10-5 4 0 5 2 5 5 0 6-9 15-26 28-18 12-39 19-64 19-26 0-44-9-57-26-13-18-19-44-19-78 0-36 2-98 7-186-2 0-13-1-35-2l-22-1c-5-1-8-3-8-6s3-6 9-8c10-3 27-14 50-32 24-18 37-44 41-76 1-9 4-13 9-13 4 0 6 3 6 10v7c-1 10-1 21-1 33v57h80c14 0 21 1 22 4-1 12-2 19-6 22-13 0-44 2-96 5zm333 235c-12 18-26 31-43 40-17 8-35 13-56 13-25 0-44-7-59-20-14-14-21-31-21-53 0-16 5-31 13-45s18-24 29-30 30-14 57-23c39-13 63-24 71-33 7-8 11-20 11-33 0-22-5-39-15-51s-25-18-44-18c-15 0-27 3-34 10-8 7-14 21-18 42-5 22-14 33-29 33-6 0-12-2-18-8-7-5-10-13-10-23 0-19 10-35 31-48 20-14 48-21 84-21 28 0 50 4 67 12s28 17 32 28c4 10 6 30 6 59l-2 97c0 37 2 64 7 80s13 23 26 23h10l6-1c6 0 9 2 9 6 0 10-24 14-73 14-15 0-24-3-29-9-5-7-7-20-8-41zm0-143c-8 9-24 21-50 35-26 13-44 25-55 37-11 13-17 27-17 45 0 15 4 28 14 39 9 11 20 16 34 16s27-4 40-13c12-9 21-20 27-33 6-14 9-34 9-60 0-20-1-42-2-66zm249-314c1 31 1 62 2 93l-1 228 1 111c0 21 3 37 9 46s19 15 38 17c8 0 12 3 12 7s-3 6-9 6h-7c-25-2-55-4-90-4-21 0-38 1-51 4h-7c-8 0-11-2-11-7 0-4 3-6 10-6 22-1 36-7 43-20 7-12 11-34 11-63l-1-210c-1-68-2-108-3-121-2-13-7-24-15-33-9-9-21-15-36-17-10-2-15-4-15-8s4-7 12-7c45-3 79-8 102-16h6zm394 188c3 9 4 18 4 26 0 11-1 23-1 35 18-21 37-36 55-46 19-10 38-15 57-15 17 0 33 4 48 12 15 9 29 21 41 38 18-17 35-30 53-38s36-12 54-12c23 0 43 5 59 14 16 10 26 21 30 33s6 33 6 65l-2 138c0 20 2 34 6 41s13 11 25 11c9 0 13 2 13 7s-7 7-20 7h-114c-11 0-16-2-16-7 0-4 3-6 9-7 20-1 33-5 38-13 5-9 7-53 7-133 0-37-1-64-4-81s-10-30-20-41c-11-10-24-15-39-15-14 0-27 4-39 12-13 8-25 20-37 37-10 32-15 89-15 170 0 28 2 46 6 54 5 7 15 11 30 11h7c8 0 12 2 12 6 0 5-5 7-15 7h-124c-13 0-19-2-19-7s3-7 11-7c14 0 25-4 30-10s9-24 10-54c2-29 3-59 3-87 0-53-5-87-15-103-10-17-25-25-44-25-17 0-34 7-50 20s-27 31-33 54c-6 22-9 62-9 119 0 40 2 64 6 73s14 14 29 14c7 0 10 0 12 1 1 1 2 3 2 6 0 4-5 6-15 6h-114c-13 0-20-2-20-7 0-4 3-7 8-7 13 0 22-3 27-8 4-4 8-18 10-40s3-58 3-108v-91c-1-11-5-19-11-26-7-6-18-9-34-10-6 0-10-2-10-6 0-3 1-5 3-6s13-2 33-4c21-2 39-3 54-3h19zm676 269c-11 18-26 31-43 40-16 8-35 13-56 13-25 0-44-7-58-20-14-14-21-31-21-53 0-16 4-31 12-45 9-14 18-24 29-30s30-14 58-23c39-13 62-24 70-33 8-8 12-20 12-33 0-22-5-39-16-51-10-12-24-18-43-18-16 0-27 3-35 10s-14 21-18 42c-4 22-14 33-29 33-5 0-11-2-18-8-6-5-9-13-9-23 0-19 10-35 30-48 20-14 49-21 84-21 28 0 51 4 68 12 16 8 27 17 31 28 5 10 7 30 7 59l-2 97c0 37 2 64 6 80 5 16 14 23 26 23h11l6-1c6 0 9 2 9 6 0 10-25 14-74 14-14 0-24-3-28-9-5-7-8-20-9-41zm0-143c-7 9-24 21-50 35-25 13-44 25-55 37-11 13-17 27-17 45 0 15 5 28 14 39s21 16 34 16c14 0 28-4 40-13 13-9 22-20 28-33 6-14 9-34 9-60 0-20-1-42-3-66zm245-42c16-28 33-49 50-62 18-14 37-21 57-21 13 0 25 5 35 15s15 21 15 33c0 23-10 35-30 35-10 0-18-6-24-19-8-17-18-25-32-25-12 0-25 7-38 20-13 14-22 29-26 45-5 17-7 51-7 103 0 47 2 74 6 81s14 12 30 14c5 0 7 2 7 5 0 6-6 8-17 8h-117c-8 0-12-2-12-6s5-7 16-7c15-1 25-6 28-15 4-8 6-40 6-95 0-80-2-128-5-144-4-16-16-25-37-26-9 0-13-3-13-7 0-2 0-4 2-5s13-2 34-3l67-4c1 13 3 40 5 80zm294-269c1 9 1 16 1 20l-1 39 1 141 1 146c41-28 72-54 92-76 20-21 30-37 30-46 0-10-9-16-27-17-10-1-15-4-15-8 0-3 2-4 4-5 3-1 14-1 33-1h88c10 0 15 2 15 7 0 3-3 6-9 7-17 2-31 7-44 14-12 7-27 20-45 39-17 17-28 29-33 33 36 17 62 65 80 143 5 19 11 32 19 40 9 7 24 11 47 12 8 0 11 3 11 7s-6 6-18 6h-90c-9-8-14-16-17-24s-6-20-8-37c-9-60-32-95-71-108-1 2-15 12-42 31-1 8-1 15-1 21 0 47 3 75 9 86s16 17 30 18c8 0 11 3 11 7s-7 6-23 6h-106c-13 0-20-2-20-6s3-6 9-7c12-2 20-4 23-7 4-2 7-7 11-15s6-22 6-43l-1-57-3-259c0-29-3-50-9-61-6-12-18-19-35-22-6-1-9-3-9-7s10-7 30-8l30-3c21-4 36-6 46-6zm311 329c-1 13-2 23-2 30 0 35 11 64 31 88 21 24 46 36 76 36s57-12 83-35c7-7 12-10 14-10 4 0 6 3 6 10-9 17-25 31-48 43s-48 18-75 18c-41 0-76-15-104-44-28-30-42-67-42-112 0-48 15-88 46-120s64-48 100-48c33 0 63 12 90 38 26 25 40 54 40 88 0 5-1 9-3 12-1 2-11 3-28 3l-184 3zm0-18c32 1 63 2 93 2l19-1c15-1 26-4 34-9s12-15 12-28c0-21-7-39-21-54-14-16-31-24-50-24-18 0-36 9-53 27-18 18-29 47-34 87zm375-92c-3 55-5 108-5 160 0 41 5 67 14 79 10 12 24 18 42 18 13 0 28-4 44-14 5-3 9-5 10-5 3 0 5 2 5 5 0 6-9 15-26 28-18 12-39 19-65 19-25 0-44-9-56-26-13-18-19-44-19-78 0-36 2-98 7-186-2 0-14-1-35-2l-22-1c-6-1-8-3-8-6s3-6 9-8c10-3 26-14 50-32 23-18 37-44 41-76 1-9 4-13 8-13 5 0 7 3 7 10v7c-1 10-1 21-1 33v57h80c14 0 21 1 21 4 0 12-2 19-5 22-13 0-45 2-96 5zm208-214c9 0 17 4 25 11 7 6 11 14 11 22 0 10-3 18-9 25s-15 10-25 10-18-3-25-9c-8-6-11-14-11-24s3-19 9-25c6-7 14-10 25-10zm40 180l-1 83 1 78v102c0 18 3 29 9 34s14 8 26 8c13 1 20 3 20 8 0 4-3 6-8 6-2 0-4-1-7-1-23-3-44-4-63-4-32 0-53 1-65 3-3 1-5 1-8 1-6 0-9-2-9-7 0-4 7-7 21-9 14-1 23-4 26-9 4-4 6-16 6-36l2-153c0-41-3-65-9-73-6-7-18-11-35-12-6 0-9-2-9-6 0-2 1-4 3-5 2-2 16-3 44-5 27-2 46-3 56-3zm185 1c6 15 9 39 11 73 15-24 32-42 50-54 19-12 39-18 61-18 16 0 32 3 48 9 16 7 28 17 36 33 9 15 13 41 13 78l-2 124c0 23 1 37 5 43s12 10 25 14c8 2 13 5 13 8s-3 5-7 5h-5c-11-2-28-3-50-3-20 0-41 0-64 2-9 0-13-2-13-6 0-3 2-5 7-6 14-3 22-6 26-9 5-4 8-8 9-13 2-5 3-23 4-53 2-30 2-55 2-74 0-51-6-86-19-103s-30-26-49-26c-29 0-53 16-72 47s-28 83-28 155c0 33 2 54 6 63 5 9 15 15 33 17 5 0 8 2 8 6s-3 6-8 6l-19-2c-7 0-30-1-68-1l-29 1c-11 0-17-2-17-6s6-8 18-10c11-2 19-6 22-11 4-6 7-24 8-55 2-31 2-70 2-117 0-43-3-70-9-81-5-10-14-17-24-19s-14-6-14-10 3-6 11-6h29c4 0 20 0 50-1zm576 52c11 17 17 37 17 57 0 32-10 59-31 81-22 22-52 35-91 38-26 2-43 4-52 6-10 3-18 7-26 14-7 7-11 14-11 21 0 10 6 18 18 23 11 5 36 8 73 9 55 2 92 4 110 7 19 3 34 12 48 26 13 14 19 33 19 56 0 37-16 67-49 91-33 23-82 35-146 35-48 0-83-6-107-19-24-12-36-30-36-55 0-38 36-69 108-93-30-5-52-12-64-20-12-9-19-21-19-36 0-16 7-29 20-41s32-22 59-31c-24-6-43-19-57-36s-22-37-22-61c0-33 13-62 39-88 25-25 58-37 97-37 38 0 70 13 94 40 25-29 49-43 71-43 15 0 27 4 36 13 8 9 12 18 12 29 0 7-2 12-7 17-5 4-11 6-18 6-12 0-22-7-29-22-5-9-10-13-16-13-10 0-23 8-40 26zm-180 61c0 36 8 62 24 77s33 23 50 23 31-8 44-24c14-15 20-39 20-72s-6-59-19-77-29-27-48-27c-21 0-38 9-51 26-13 18-20 42-20 74zm98 237c-25 0-49 4-71 13-21 8-38 18-48 30-10 11-16 25-16 42 0 21 11 38 32 49 20 12 47 18 78 18 48 0 83-10 106-29 23-20 35-41 35-64 0-20-10-34-29-44s-48-15-87-15z" id="_2167924710832"/></g></svg>